<svg width="70" height="37" viewBox="0 0 70 37" fill="none" xmlns="http://www.w3.org/2000/svg">
<path d="M7.182 9.82C7.317 10.009 9.288 13.087 13.068 19.054C14.499 18.973 15.066 18.946 15.417 18.946L17.253 18.973H17.874V17.947C16.848 17.974 16.713 17.839 15.417 15.841C13.608 13.06 11.691 10.198 11.259 9.55C13.851 8.632 15.309 6.904 15.309 4.771C15.309 3.313 14.58 1.99 13.473 1.423C12.69 1.045 11.88 0.91 10.152 0.91C9.585 0.91 8.829 0.936999 8.046 0.963999C6.129 1.018 4.563 1.045 3.186 1.045C2.646 1.045 1.971 1.018 0.459 0.963999V2.044L0.918 2.071C1.836 2.152 2.214 2.233 2.376 2.476C2.646 2.881 2.754 4.879 2.754 9.037C2.754 15.031 2.673 17.353 2.43 17.623C2.241 17.839 1.836 17.92 0.459 17.974V19.054C2.457 19 3.456 18.973 5.157 18.973C6.642 18.973 7.317 19 8.559 19.081V17.974L8.208 17.947C7.209 17.893 6.912 17.812 6.75 17.623C6.534 17.299 6.453 16.138 6.453 12.736C6.453 6.499 6.48 4.204 6.561 2.503C7.236 2.395 7.641 2.368 8.019 2.368C10.233 2.368 11.448 3.529 11.448 5.662C11.448 7.822 9.963 9.415 7.938 9.415C7.857 9.415 7.776 9.415 7.614 9.388L7.371 9.361L7.182 9.82ZM28.5892 0.504998C25.0252 0.504998 22.6492 1.423 20.7862 3.529C19.3282 5.176 18.5722 7.39 18.5722 10.063C18.5722 16.192 21.9742 19.594 28.1032 19.594C34.1242 19.594 37.9582 15.679 37.9582 9.523C37.9582 3.853 34.4752 0.504998 28.5892 0.504998ZM28.1032 1.99C30.0742 1.99 31.4242 2.638 32.3422 3.988C33.3412 5.446 33.8812 7.633 33.8812 10.198C33.8812 12.439 33.4762 14.302 32.6662 15.733C31.8292 17.272 30.3442 18.082 28.3732 18.082C24.7012 18.082 22.6492 15.031 22.6492 9.55C22.6492 4.582 24.5122 1.99 28.1032 1.99ZM40.9016 13.735C40.9016 15.49 40.7666 16.84 40.4696 18.217C42.2786 19.189 43.9256 19.594 45.9506 19.594C50.4866 19.594 53.5106 16.975 53.5106 13.06C53.5106 11.332 52.8896 9.955 51.7826 9.307C51.0266 8.848 50.5136 8.686 47.8946 8.092C46.1126 7.687 45.5996 7.525 45.0326 7.174C44.3306 6.742 43.8986 5.932 43.8986 4.987C43.8986 3.205 45.2756 2.044 47.3816 2.044C48.9476 2.044 50.3786 2.665 50.7566 3.502C50.9186 3.853 50.9726 4.42 50.9996 5.662H52.0526C52.0526 3.853 52.2146 2.557 52.5386 1.612C51.0266 0.855999 49.5686 0.558999 47.5436 0.558999C45.3026 0.558999 43.5746 1.126 42.4136 2.206C41.3336 3.232 40.6856 4.852 40.6856 6.472C40.6856 8.011 41.2796 9.388 42.3056 10.144C43.0346 10.684 43.8446 10.981 45.8696 11.386C47.7056 11.764 48.4886 12.061 49.1096 12.574C49.6766 13.06 50.0276 13.87 50.0276 14.761C50.0276 16.732 48.5156 18.055 46.3016 18.055C44.8976 18.055 43.6286 17.569 42.6566 16.678C42.2516 16.3 42.0896 15.976 42.0896 15.49L42.0356 14.086V13.735H40.9016ZM56.2016 19.081C58.3346 19 58.4966 19 59.8466 19C61.6286 19 62.8436 19 64.3556 19.054L66.5966 19.081C67.5956 19.081 68.0276 19.054 68.9726 19C68.9726 17.866 69.1346 15.652 69.3236 14.599H68.2706C67.7846 16.867 67.7306 17.056 67.5686 17.218C67.3256 17.434 66.0296 17.542 63.8426 17.542C63.1946 17.542 62.7356 17.542 61.4396 17.488C61.3316 16.327 61.3316 15.76 61.3316 13.789C61.3316 12.034 61.3316 11.413 61.3586 10.414C62.1146 10.36 62.5466 10.333 63.2216 10.333C64.3016 10.333 65.2466 10.387 65.5706 10.468C65.9756 10.603 66.1106 10.9 66.1376 12.034L66.1646 12.628H67.2986C67.2446 10.765 67.2176 10.171 67.2176 9.712C67.2176 9.469 67.2176 9.469 67.2986 6.877H66.2456L66.2186 7.444C66.1646 8.308 66.0566 8.713 65.8136 8.848C65.5436 8.983 65.3816 8.983 63.1406 8.983C62.3036 8.983 61.9526 8.956 61.3316 8.902V8.173L61.4126 4.555V2.503C62.2226 2.476 62.3576 2.476 63.9506 2.476C66.5696 2.476 67.2176 2.557 67.4876 2.935C67.6496 3.124 67.6766 3.367 67.6766 4.906H68.6756C68.7026 3.664 68.8646 2.125 69.1076 1.018C68.4326 0.963999 67.1906 0.963999 64.3556 0.963999C63.8966 0.963999 63.0326 0.963999 61.7366 0.990999C60.9266 1.018 60.3056 1.018 59.8466 1.018C58.7396 1.018 57.7136 0.990999 55.4726 0.91V2.017C57.1196 2.071 57.4706 2.233 57.5786 2.881C57.6056 3.097 57.6596 7.93 57.6596 10.414C57.6596 14.41 57.5786 17.434 57.4436 17.65C57.3356 17.812 56.8766 18.109 56.2016 18.406V19.081Z" fill="#D2232A"/>
<path d="M0.3196 36.0564C1.1844 36.0188 3.1208 35.9812 3.7788 35.9812C4.794 35.9812 5.17 36 6.204 36.0564V35.3044C4.8504 35.2668 4.606 35.1728 4.5308 34.7592C4.4744 34.3644 4.418 31.5444 4.418 28.7996C4.418 26.2428 4.4368 25.6036 4.512 24.4944C4.8692 24.4004 5.0948 24.3816 5.546 24.3816C6.2792 24.3816 6.7116 24.532 7.0688 24.8892C7.4824 25.3216 7.7268 25.9984 7.7268 26.8256C7.7268 28.2544 6.956 29.2696 5.8656 29.2696C5.6588 29.2696 5.4896 29.232 5.1888 29.1192L4.982 29.3636C5.1512 29.6268 5.1888 29.6832 5.3016 29.984C5.734 30.0968 5.9784 30.1344 6.3168 30.1344C8.648 30.1344 10.3964 28.4424 10.3964 26.1864C10.3964 24.2312 9.2496 23.3852 6.6176 23.3852C6.1664 23.3852 5.7716 23.404 5.3204 23.4228C3.7788 23.498 3.7788 23.498 2.9516 23.498C2.4816 23.498 1.6168 23.4792 0.3384 23.4228V24.1936C1.2596 24.25 1.504 24.3064 1.6356 24.438C1.8048 24.6448 1.8612 25.6036 1.8612 28.856C1.8612 32.4468 1.8236 34.4772 1.7484 34.778C1.6544 35.1728 1.5228 35.2292 0.5828 35.2856L0.3196 35.3044V36.0564ZM11.2903 36.0564C13.3019 36 14.0539 35.9812 14.3547 35.9812C15.0503 35.9812 15.5203 36 17.0243 36.0564V35.3044C16.0843 35.2856 15.8399 35.2292 15.7083 35.0788C15.5015 34.8344 15.4639 34.1576 15.4639 30.5856V30.0216C16.6859 29.984 17.1371 29.984 18.2651 29.984C19.1487 29.984 19.6187 29.984 20.8407 30.0216C20.8219 32.5784 20.7843 34.1576 20.7467 34.7216C20.6339 35.1916 20.5963 35.2104 19.5247 35.2856L19.2803 35.3044V36.0564C20.3895 36 21.0663 35.9812 21.9875 35.9812C22.8711 35.9812 23.4915 36 24.9955 36.0564V35.3044L24.7135 35.2856C23.7923 35.248 23.6231 35.1916 23.5479 34.9096C23.4351 34.496 23.3975 33.462 23.3975 30.3976C23.3975 28.3108 23.3975 27.5964 23.4351 25.5472C23.4351 24.5508 23.4539 24.5132 23.5855 24.4004C23.7359 24.2688 24.0367 24.2312 25.0143 24.156V23.3852C23.3035 23.4604 22.6455 23.4792 21.8747 23.4792C21.0099 23.4792 20.4459 23.4604 19.2803 23.404V24.1748C20.1451 24.1936 20.5023 24.2688 20.6339 24.438C20.7843 24.5696 20.8407 25.7352 20.8595 28.8936C19.4307 28.9312 18.8855 28.95 17.9643 28.95C17.1559 28.95 16.6483 28.95 15.4639 28.9124C15.4639 25.6412 15.4639 25.3028 15.5203 24.7952C15.5579 24.3064 15.7459 24.25 17.0243 24.1748V23.3852C15.7835 23.4792 14.9939 23.498 13.7155 23.498C12.6627 23.498 12.2115 23.4792 11.2715 23.4228V24.1936H11.5535C12.5499 24.2312 12.7379 24.344 12.7567 24.908C12.8131 25.6224 12.8695 28.2356 12.8695 29.42C12.8695 33.8004 12.8131 34.9096 12.6251 35.0976C12.4935 35.2104 12.3431 35.248 11.2903 35.3044V36.0564ZM36.0813 23.404C35.6865 24.1936 35.5173 24.532 34.4833 26.5248C33.7313 27.9536 33.4305 28.5552 32.9793 29.514C30.6669 24.9644 29.7269 23.5732 28.7681 23.2536C27.9973 23.498 26.3805 23.7988 25.6849 23.8176V24.532L25.8353 24.5132H25.9857C26.5121 24.5132 26.8881 24.6824 27.2641 25.0772C27.8093 25.6976 28.9561 27.3896 30.2533 29.5516C30.9489 30.7172 31.0053 30.8488 31.0053 31.4504V31.9204V32.334V32.71V33.4244C31.0053 34.7028 30.9301 35.0788 30.6481 35.154C30.4977 35.2104 30.1029 35.2668 29.3697 35.3044V36.0564C30.7421 36 31.2497 35.9812 32.3025 35.9812C33.2613 35.9812 33.9945 36 35.1037 36.0564V35.2292C34.1073 35.2292 33.8441 35.1916 33.7125 35.06C33.5057 34.8532 33.4493 33.9508 33.4493 31.206C33.4493 30.3036 33.4869 30.2096 34.5397 28.48C34.8781 27.916 35.2165 27.3708 35.5361 26.8256C36.6077 25.002 37.0777 24.3064 37.5101 23.8176V23.404H36.0813ZM38.5704 32.334C38.5704 33.556 38.4764 34.496 38.2696 35.4548C39.5292 36.1316 40.676 36.4136 42.086 36.4136C45.2444 36.4136 47.35 34.59 47.35 31.864C47.35 30.6608 46.9176 29.702 46.1468 29.2508C45.6204 28.9312 45.2632 28.8184 43.4396 28.4048C42.1988 28.1228 41.8416 28.01 41.4468 27.7656C40.958 27.4648 40.6572 26.9008 40.6572 26.2428C40.6572 25.002 41.616 24.1936 43.0824 24.1936C44.1728 24.1936 45.1692 24.626 45.4324 25.2088C45.5452 25.4532 45.5828 25.848 45.6016 26.7128H46.3348C46.3348 25.4532 46.4476 24.5508 46.6732 23.8928C45.6204 23.3664 44.6052 23.1596 43.1952 23.1596C41.6348 23.1596 40.4316 23.5544 39.6232 24.3064C38.8712 25.0208 38.42 26.1488 38.42 27.2768C38.42 28.3484 38.8336 29.3072 39.548 29.8336C40.0556 30.2096 40.6196 30.4164 42.0296 30.6984C43.308 30.9616 43.8532 31.1684 44.2856 31.5256C44.6804 31.864 44.9248 32.428 44.9248 33.0484C44.9248 34.4208 43.872 35.342 42.3304 35.342C41.3528 35.342 40.4692 35.0036 39.7924 34.3832C39.5104 34.12 39.3976 33.8944 39.3976 33.556L39.36 32.5784V32.334H38.5704ZM48.7537 36.0564C49.7689 36.0188 50.2201 36 51.3293 36C52.3257 36 52.9837 36.0188 54.4689 36.0564V35.3044C53.4349 35.248 53.2281 35.2104 53.0965 35.0412C52.9273 34.8156 52.9085 34.4396 52.9085 29.6268C52.9085 26.6564 52.9649 24.6824 53.0401 24.4944C53.1341 24.3064 53.3785 24.25 54.4877 24.1748V23.4228C53.7169 23.4792 53.1905 23.498 52.1565 23.498C50.6901 23.498 49.9569 23.4792 48.7725 23.3852V24.1748L49.1297 24.1936C49.9381 24.25 50.1637 24.3252 50.2201 24.6072C50.2953 24.8704 50.3141 26.318 50.3141 29.6268C50.3141 33.932 50.2765 34.8344 50.0885 35.0788C49.9945 35.2104 49.7877 35.248 48.9417 35.2856L48.7537 35.3044V36.0564ZM62.8888 23.122C60.4072 23.122 58.7528 23.7612 57.4556 25.2276C56.4404 26.3744 55.914 27.916 55.914 29.7772C55.914 34.0448 58.2828 36.4136 62.5504 36.4136C66.7428 36.4136 69.4124 33.6876 69.4124 29.4012C69.4124 25.4532 66.9872 23.122 62.8888 23.122ZM62.5504 24.156C63.9228 24.156 64.8628 24.6072 65.502 25.5472C66.1976 26.5624 66.5736 28.0852 66.5736 29.8712C66.5736 31.4316 66.2916 32.7288 65.7276 33.7252C65.1448 34.7968 64.1108 35.3608 62.7384 35.3608C60.1816 35.3608 58.7528 33.2364 58.7528 29.42C58.7528 25.9608 60.05 24.156 62.5504 24.156Z" fill="#535353"/>
</svg>
